<svg width="135" height="32" viewBox="0 0 135 32" fill="none" xmlns="http://www.w3.org/2000/svg">
<g clip-path="url(#clip0_27590_76378)">
<g clip-path="url(#clip1_27590_76378)">
<path fill-rule="evenodd" clip-rule="evenodd" d="M39.1994 14.2328C37.7493 14.414 36.8431 14.837 36.2389 15.4414C35.7554 15.9245 35.5139 16.5287 35.5139 17.1328C35.5139 18.2204 36.2993 19.0059 37.266 19.0059C37.87 19.0059 38.4742 18.764 38.7764 18.4018C38.8971 18.2808 39.0181 18.0392 39.0181 17.7976L39.1993 14.2328H39.1994ZM41.6764 20.6974C40.4681 20.6974 39.3803 19.912 39.0785 18.704C38.4742 19.7912 37.3264 20.6974 35.816 20.6974C34.1242 20.6974 32.6742 19.3682 32.6742 17.6766C32.6742 15.3203 34.9097 13.6288 39.1388 13.5683V12.9641C39.1993 11.2725 38.2326 10.2452 36.5409 10.2452C35.3323 10.2452 34.0639 11.0309 33.218 12.0578C33.1576 12.1183 32.7952 11.7559 32.7952 11.6953C33.8825 9.52052 35.8763 8.31209 37.9305 8.31209C40.2865 8.31209 41.9784 10.0038 41.9179 12.8433L41.737 17.5559C41.737 18.6435 42.2202 19.1267 42.7639 19.1267C43.3679 19.1267 43.7909 18.6434 44.0326 17.9785C44.0326 17.9182 44.3949 18.0994 44.3949 18.1598C44.3949 19.7912 43.1867 20.6974 41.6762 20.6974H41.6764ZM56.7201 20.2745H53.5181C53.4576 20.2745 53.4576 19.6704 53.5181 19.6704C54.8473 19.4891 55.0285 19.3682 55.0285 16.7704V13.1455C55.0285 11.5141 54.0619 10.3663 52.6722 10.3663C51.7056 10.3663 50.7993 10.8496 50.3763 11.4538C50.0743 11.8164 49.893 12.4809 49.893 13.3268V16.7704C49.893 19.3684 50.1949 19.4891 51.5244 19.6704C51.5244 19.6704 51.5847 20.2745 51.5244 20.2745H45.3615C45.3013 20.2745 45.3013 19.6704 45.3013 19.6704C46.7512 19.4285 46.9326 19.3682 46.9326 16.7704V12.36C46.9326 9.70151 46.6304 9.58077 45.0593 9.33918C44.9387 9.33918 44.9991 8.73491 45.0593 8.73491H49.6512V11.3934H49.7118C50.7389 9.4598 52.3098 8.31197 54.243 8.31197C56.4181 8.31197 58.1098 10.0037 58.1098 12.7829V16.71C58.1098 19.308 58.3512 19.4287 59.8014 19.6101C59.9221 19.6101 59.8617 20.2141 59.8014 20.2141C58.8951 20.2745 57.5658 20.2745 56.72 20.2745M66.4472 20.6974C62.8223 20.6974 60.466 17.8579 60.466 14.5954C60.466 11.0912 62.8224 8.31185 66.6892 8.31185C68.5016 8.31185 69.4077 8.91613 69.9517 8.91613C70.1932 8.91613 70.435 8.73491 70.5557 8.43283C70.5557 8.37234 71.2808 8.37234 71.2808 8.43283V12.7828C71.2808 12.8433 70.5558 12.8433 70.5558 12.7828C69.5892 10.789 68.26 9.09747 66.6894 9.09747C64.7557 9.09747 63.6079 11.1517 63.6079 13.9911C63.6079 17.0119 65.1787 19.0059 67.3538 19.0059C68.8037 19.0059 70.4352 17.9787 71.0996 16.8308C71.16 16.7098 71.6434 16.9517 71.6434 17.0727C70.8581 19.1267 68.8037 20.6974 66.4475 20.6974M81.1287 13.0245V12.1786C81.1287 10.3057 80.2224 9.21821 79.0745 9.21821C77.6243 9.21821 76.537 10.789 76.2952 13.0245H81.1288H81.1287ZM76.2952 14.4139C76.2952 17.0119 77.7454 19.0057 80.2223 19.0057C81.6723 19.0057 83.1221 18.0391 83.9079 16.8305C83.9079 16.7703 84.391 16.9515 84.391 17.0725C83.7268 19.1267 81.5515 20.6973 79.1349 20.6973C75.3287 20.6973 73.0933 17.9181 73.0933 14.5952C73.0933 11.2724 75.4496 8.31197 79.4371 8.31197C82.4578 8.31197 84.4518 10.3057 84.633 13.0245V13.8704H76.4163C76.2953 13.9911 76.2953 14.2932 76.2953 14.4141L76.2952 14.4139ZM90.6747 20.6974C88.8016 20.6974 87.1704 20.2144 86.6267 19.8516C86.5663 19.7912 86.3851 18.2204 86.3851 16.6495C86.3851 16.5893 87.11 16.5286 87.11 16.6495C88.0766 18.7641 89.4662 19.9724 90.9768 19.9724C92.2454 19.9724 93.1517 19.308 93.1517 18.2808C93.1517 17.0726 91.7016 16.5287 90.2519 15.8642C88.4995 15.1996 86.5061 14.2933 86.5061 12.058C86.5061 10.3057 88.0165 8.4932 90.856 8.4932C92.0646 8.4932 92.8497 8.9765 93.3936 8.9765C93.6352 8.9765 93.8768 8.79539 94.0579 8.4932C94.0579 8.43283 94.783 8.43283 94.783 8.4932V12.4809C94.783 12.5413 94.0579 12.5413 94.0579 12.4809C93.0913 10.6684 91.9435 9.39955 90.5538 9.39955C89.2849 9.39955 88.6805 10.2454 88.6805 10.9102C88.6805 12.1184 90.0703 12.6017 91.5202 13.2059C93.2723 13.9308 95.3265 14.8373 95.3265 17.133C95.3265 19.0662 93.5142 20.6973 90.6746 20.6973M96.6559 10.0036C96.4748 10.0036 96.4143 9.52017 96.5955 9.39943C97.8643 8.25137 99.979 6.31816 101.127 5.10973C101.187 5.04924 101.61 5.10973 101.61 5.2307V8.79503H105.718C105.839 8.79503 105.839 9.94298 105.718 9.94298H101.61V16.6493C101.61 18.1597 102.516 18.8242 103.483 18.8242C104.208 18.8242 104.993 18.2203 105.356 17.4951C105.356 17.4348 105.839 17.6764 105.839 17.737C105.356 19.3684 103.785 20.6368 102.033 20.6368C100.16 20.6368 98.6497 19.4285 98.6497 17.0722V10.0035H96.6559V10.0036ZM115.748 11.9372C115.385 11.9372 114.479 10.8496 113.814 10.8496C113.512 10.8496 113.15 11.0308 112.848 11.3329C112.364 11.8162 111.941 12.9642 111.941 13.9308V16.8309C111.941 19.4892 112.365 19.5496 113.754 19.7307C113.754 19.7307 113.815 20.3347 113.754 20.3347H107.35C107.29 20.3347 107.29 19.7308 107.35 19.7308C108.8 19.4891 108.982 19.4286 108.982 16.831V12.4202C108.982 9.82224 108.679 9.64102 107.108 9.39943C106.987 9.39943 107.048 8.79515 107.108 8.79515H111.76V11.8159H111.881C112.002 11.4535 112.244 11.0306 112.425 10.6076C113.271 9.21797 114.298 8.3721 115.385 8.3721C116.413 8.3721 117.259 9.1576 117.259 10.0035C117.318 10.9701 116.05 11.9367 115.748 11.9367M128.254 13.5078L124.327 23.5975C122.937 27.162 121.668 27.8872 119.977 27.8872C119.01 27.8872 117.923 27.4037 117.923 27.1018C117.862 26.6184 118.527 24.8664 118.889 24.8664C119.01 24.8664 120.46 25.5307 121.185 25.5307C122.212 25.5307 122.877 24.8664 123.42 23.4162L124.145 21.4828C123.904 20.5162 121.004 14.1724 120.641 13.3264C119.916 11.6347 119.433 10.3057 118.95 9.82224C118.648 9.52005 118.346 9.39943 117.5 9.27846C117.439 9.27846 117.439 8.67418 117.5 8.67418C118.285 8.67418 119.916 8.73455 120.823 8.73455C121.729 8.73455 123.3 8.67406 124.085 8.67406C124.146 8.67406 124.146 9.27834 124.085 9.27834C122.273 9.51981 122.454 10.124 123.421 12.5408L125.535 17.6762L127.227 13.2657C127.831 11.7553 128.133 10.8491 128.133 10.3053C128.133 9.64054 127.71 9.39895 126.441 9.3387C126.381 9.3387 126.381 8.67394 126.441 8.67394C127.287 8.67394 128.375 8.73431 129.1 8.73431C129.644 8.73431 130.187 8.67382 131.214 8.67382C131.275 8.67382 131.335 9.33858 131.214 9.33858C130.55 9.39883 130.248 9.58005 129.885 9.9425C129.402 10.4259 129.039 11.3925 128.254 13.5071L128.254 13.5078Z" fill="#54524F"/>
<path fill-rule="evenodd" clip-rule="evenodd" d="M18.9595 8.01021C16.845 5.71432 14.7306 6.077 14.368 6.13725C14.5492 6.19762 14.7306 10.1852 16.966 12.2998C18.4764 13.6892 21.5576 13.2059 21.5576 13.2059C21.5576 13.2059 21.0138 10.2456 18.9597 8.01021M21.4974 15.8041C20.8326 15.8041 18.1139 16.0458 16.3014 18.2811C14.4285 20.6375 14.4889 22.5104 14.0659 22.9333C14.4285 23.0542 18.2348 23.4166 19.866 20.9396C21.4368 18.6434 21.4974 16.1664 21.4974 15.804M4.94286 14.1725C5.36567 14.2331 6.81581 16.1061 9.41378 16.3477C12.2533 16.65 13.2199 15.2 13.2805 15.2C13.2805 15.0186 10.9847 12.5416 8.44718 12.5416C6.69484 12.6019 4.94286 14.1726 4.94286 14.1726M15.2741 15.4415C15.2138 15.5019 12.8576 18.6437 7.29911 17.7978C2.82819 17.0728 1.19694 14.5956 0.894745 14.5352C1.25731 14.0518 4.64078 11.3331 8.56767 11.3934C12.4346 11.5144 15.274 13.6893 15.274 13.6893H17.751C15.7574 13.0852 13.3408 11.9977 12.2532 9.58097C11.2866 7.34568 11.4678 6.01639 11.0449 4.14356C11.0449 4.14356 15.5157 3.78099 18.9595 6.01639C22.1013 8.07057 23.8533 13.5081 23.9138 13.6893H25.847L25.4243 4.02258L27.8409 4.08295C27.4181 6.62055 27.9619 24.7457 27.8409 24.7457C27.5993 24.806 25.545 24.9266 25.3639 24.4434C25.3639 24.4434 25.8472 15.5622 25.9077 15.3808H24.0345C24.0345 15.5018 23.8533 20.5163 20.0471 23.1747C16.2406 25.8331 10.7428 25.0476 10.7428 25.0476C11.4076 24.0205 10.7428 22.933 12.676 19.9726C14.9116 16.5893 17.872 15.3808 17.8117 15.3808C17.6305 15.4414 15.3347 15.4414 15.2741 15.4414" fill="#9CBE30"/>
<path fill-rule="evenodd" clip-rule="evenodd" d="M133.561 9.78951C133.737 9.78951 133.859 9.72543 133.859 9.57343C133.859 9.43928 133.789 9.35184 133.579 9.35184H133.392V9.78963H133.561V9.78951ZM133.205 9.18822H133.608C133.835 9.18822 134.057 9.27003 134.057 9.56193C134.057 9.70782 133.958 9.8482 133.824 9.88892L134.11 10.3908H133.894L133.666 9.94713H133.392V10.3908H133.205V9.18822ZM134.484 9.81286C134.484 9.25231 134.092 8.83788 133.602 8.83788C133.112 8.83788 132.72 9.25231 132.72 9.81286C132.72 10.3674 133.112 10.7702 133.602 10.7702C134.092 10.7702 134.484 10.3676 134.484 9.81286H134.484ZM132.54 9.81286C132.54 9.12977 133.024 8.6745 133.602 8.6745C134.186 8.6745 134.664 9.12989 134.664 9.81298C134.664 10.4902 134.186 10.9397 133.602 10.9397C133.024 10.9397 132.54 10.4902 132.54 9.81298V9.81286Z" fill="#54524F"/>
</g>
</g>
<defs>
<clipPath id="clip0_27590_76378">
<rect width="133.791" height="32" fill="white" transform="translate(0.894745)"/>
</clipPath>
<clipPath id="clip1_27590_76378">
<rect width="133.791" height="24" fill="white" transform="translate(0.894745 4)"/>
</clipPath>
</defs>
</svg>
