<svg xmlns="http://www.w3.org/2000/svg" width="20" height="20" fill="none" viewBox="0 0 20 20" class="sc-95163c4c-0 fHirmr apple-brand-icon"><path fill="#000" d="M17.369 14.288a10 10 0 0 1-.986 1.772q-.777 1.108-1.27 1.534-.76.698-1.631.719-.627 0-1.508-.36t-1.623-.359q-.777 0-1.668.359-.893.36-1.442.379-.837.036-1.669-.738-.531-.463-1.328-1.589-.855-1.2-1.404-2.79-.59-1.714-.59-3.324 0-1.843.797-3.176a4.7 4.7 0 0 1 1.67-1.69 4.5 4.5 0 0 1 2.257-.636q.664.001 1.746.406 1.081.407 1.385.408.229 0 1.536-.48 1.234-.444 2.087-.37 2.316.185 3.472 1.827-2.07 1.255-2.048 3.509.02 1.756 1.27 2.916.567.537 1.27.833-.152.442-.323.85M13.83.367q0 1.376-1.002 2.565c-.806.942-1.78 1.487-2.837 1.4a3 3 0 0 1-.022-.347c0-.88.383-1.822 1.064-2.592q.51-.585 1.296-.973.784-.383 1.482-.42.02.184.02.367"></path></svg>