<svg width="145" height="32" viewBox="0 0 145 32" fill="none" xmlns="http://www.w3.org/2000/svg">
<path d="M22.564 21.9784L22.5195 21.934H20.4679V26.6462V27.1911C20.4679 27.914 21.0539 28.5002 21.7767 28.5002H25.8781C26.6948 28.5002 27.357 27.8382 27.357 27.0215C27.357 26.8574 27.2918 26.7002 27.1759 26.5842L22.5669 21.9755L22.564 21.9784Z" fill="black"/>
<path d="M0.00482941 27.0086C0.00482941 27.8238 0.665582 28.4846 1.48062 28.4846H5.16148C6.11835 28.4846 6.89393 27.7088 6.89393 26.7521V26.6462V21.934H4.82467L0.185072 26.5736C0.0696172 26.689 0.00482941 26.8452 0.00482941 27.0086Z" fill="black"/>
<path d="M0.865914 16.3045C0.311065 16.8594 -0.000414892 17.6121 4.14774e-07 18.3966L0.00456875 26.7537L13.6717 13.0863V3.50061L0.865914 16.3045Z" fill="#007634"/>
<path d="M26.746 16.5744L13.6726 3.49988L13.6717 13.0864L27.3569 26.7652V18.0493C27.3569 17.4961 27.1372 16.9654 26.746 16.5744Z" fill="#469C35"/>
<path d="M15.2371 28.4926H12.2971V24.8485C12.2971 24.2307 12.798 23.7299 13.4157 23.7299H14.1184C14.7364 23.7299 15.2371 24.2307 15.2371 24.8485V28.4926Z" fill="black"/>
<path d="M44.9959 8.38554C44.9959 8.69995 45.0484 10.0965 45.2057 11.1091C45.1358 11.3185 44.6644 11.3885 44.542 11.2313C44.0706 9.60754 42.9533 8.73456 41.2596 8.73456C39.3216 8.73456 37.244 10.3932 37.244 13.8678C37.244 17.3422 39.2518 19.2105 41.3468 19.2105C43.4597 19.2105 44.4373 17.6914 44.9088 16.5042C45.0484 16.3645 45.4675 16.4169 45.5722 16.6264C45.45 17.9185 45.1531 18.9662 44.9088 19.3675C43.9659 19.6296 42.7264 20.0137 41.3643 20.0137C39.6534 20.0137 37.9072 19.6121 36.6677 18.6866C35.4104 17.7266 34.4503 16.2772 34.4503 14.1123C34.4503 11.9821 35.3581 10.4807 36.563 9.48557C37.8025 8.45539 39.5833 7.93164 41.3993 7.93164C43.1801 7.93164 44.4724 8.35051 44.9959 8.38554Z" fill="black"/>
<path d="M51.8753 14.1997C51.1593 14.1997 51.1418 14.2172 51.1418 14.7061V17.2206C51.1418 18.8442 51.2467 19.0016 52.0323 19.1062L52.5911 19.1761C52.7307 19.281 52.7307 19.6825 52.5911 19.7872C51.5959 19.7522 50.7229 19.7349 49.9373 19.7349C49.0991 19.7349 48.2262 19.7522 47.3357 19.7872C47.196 19.6825 47.196 19.281 47.3357 19.1761L47.7547 19.1238C48.5579 19.0189 48.6452 18.8442 48.6452 17.2206V10.7253C48.6452 9.10148 48.5579 8.92697 47.7547 8.82209L47.3357 8.76976C47.196 8.6651 47.196 8.26332 47.3357 8.15845C48.1913 8.19368 49.0991 8.21099 49.9373 8.21099C50.7229 8.21099 51.5959 8.19368 52.3642 8.15845C52.5037 8.26332 52.5037 8.6651 52.3642 8.76976L51.9975 8.82209C51.2467 8.92697 51.1418 9.10148 51.1418 10.7253V12.7508C51.1418 13.257 51.1593 13.2744 51.8753 13.2744H55.5069C56.2402 13.2744 56.2402 13.257 56.2402 12.7508V10.7253C56.2402 9.10148 56.1528 8.96179 55.3499 8.83961L54.8783 8.76976C54.7386 8.6651 54.7386 8.26332 54.8783 8.15845C55.8386 8.19368 56.6941 8.21099 57.5322 8.21099C58.3877 8.21099 59.1908 8.19368 59.9942 8.15845C60.1336 8.26332 60.1336 8.6651 59.9942 8.76976L59.6449 8.82209C58.8418 8.94427 58.7369 9.10148 58.7369 10.7253V17.2204C58.7369 18.8439 58.8418 18.9663 59.6449 19.106L60.0638 19.1759C60.2035 19.2808 60.2035 19.6823 60.0638 19.787C59.1908 19.752 58.3354 19.7347 57.5322 19.7347C56.6593 19.7347 55.8038 19.752 54.9656 19.787C54.8259 19.6823 54.8259 19.2808 54.9656 19.1759L55.3499 19.1235C56.1528 19.0187 56.2402 18.8439 56.2402 17.2204V14.7059C56.2402 14.217 56.2402 14.1995 55.5069 14.1995L51.8753 14.1997Z" fill="black"/>
<path d="M63.5034 10.7253C63.5034 9.10148 63.3987 8.99661 62.6129 8.83961L62.1765 8.75225C62.0366 8.64758 62.0193 8.26332 62.2114 8.15845C63.0495 8.19368 63.9225 8.21099 64.7606 8.21099C65.6163 8.21099 66.4718 8.19368 67.3099 8.15845C67.4494 8.26332 67.4494 8.64758 67.3099 8.75225L66.8909 8.82209C66.105 8.96179 66.0004 9.10148 66.0004 10.7253V14.7584C66.0004 16.8013 66.2274 19.0539 68.8814 19.0539C71.1161 19.0539 71.797 17.0984 71.797 14.7061V12.5934C71.797 11.1794 71.7272 9.85228 71.5349 9.39838C71.3779 9.03163 70.9937 8.92697 70.5225 8.83961L70.0511 8.75225C69.9114 8.61255 69.9462 8.26332 70.0511 8.15845C70.9937 8.19368 71.6748 8.21099 72.3906 8.21099C73.0367 8.21099 73.6827 8.19368 74.3461 8.15845C74.4508 8.26332 74.4858 8.61255 74.3461 8.75225L74.0319 8.82209C73.578 8.92697 73.2459 9.03163 73.0891 9.39838C72.8968 9.85228 72.8272 11.1794 72.8272 12.5934V14.5491C72.8272 16.1902 72.67 17.6918 71.7099 18.757C70.9416 19.5779 69.667 20.014 68.253 20.014C66.9259 20.014 65.7385 19.8045 64.7959 19.0364C63.8879 18.2854 63.5038 16.9933 63.5038 15.0904V10.7253H63.5034Z" fill="black"/>
<path d="M79.7755 13.257C79.7755 13.8684 79.8279 13.9207 80.8583 13.9207C81.4867 13.9207 81.853 13.7635 82.1849 13.4318C82.4816 13.1349 82.8136 12.5761 82.8136 11.5459C82.8136 9.97467 81.8883 8.96179 80.5261 8.96179C79.8102 8.96179 79.7753 9.01412 79.7753 9.85228V13.257H79.7755ZM77.3837 11.0397C77.3837 9.29351 77.3488 9.10148 76.6149 8.99661L76.1439 8.92697C75.9692 8.83961 75.9692 8.40301 76.1788 8.31565C77.4883 8.2285 78.85 8.15845 80.5088 8.15845C81.9929 8.15845 83.2675 8.38571 83.9307 8.78728C84.9436 9.38108 85.4673 10.2538 85.4673 11.3714C85.4673 12.9253 84.42 13.5888 83.6165 13.9905C83.442 14.0779 83.442 14.1826 83.5291 14.3746C84.6817 16.7141 85.3973 18.0237 86.2356 18.7397C86.6895 19.1064 87.1434 19.2113 87.4053 19.2286C87.5623 19.316 87.5623 19.5781 87.4749 19.6827C87.1956 19.8049 86.637 19.8397 86.0959 19.8397C84.4897 19.8397 83.4766 19.2637 82.7087 18.0064C82.1497 17.0811 81.7484 16.2256 81.3468 15.3003C81.1372 14.8289 80.8581 14.689 80.4215 14.689C79.8102 14.689 79.7753 14.7242 79.7753 15.0733V17.221C79.7753 18.8271 79.88 18.9494 80.6658 19.0891L81.1372 19.1765C81.2594 19.2639 81.2594 19.6829 81.1372 19.7876C80.2117 19.7526 79.4088 19.7353 78.5704 19.7353C77.6977 19.7353 76.9293 19.7526 76.0216 19.7876C75.8817 19.6829 75.8817 19.2639 76.0216 19.1765L76.4925 19.0891C77.2786 18.9494 77.3832 18.8271 77.3832 17.221V11.0397H77.3837Z" fill="black"/>
<path d="M99.1034 8.38566C99.1034 8.70008 99.1555 10.0966 99.3127 11.1093C99.2431 11.3186 98.7715 11.3887 98.6493 11.2314C98.1777 9.60767 97.0605 8.73469 95.3669 8.73469C93.4287 8.73469 91.351 10.3933 91.351 13.8679C91.351 17.3423 93.3589 19.2106 95.4541 19.2106C97.567 19.2106 98.5446 17.6915 99.016 16.5044C99.1555 16.3647 99.5746 16.417 99.6795 16.6265C99.5571 17.9186 99.2604 18.9663 99.016 19.3676C98.073 19.6297 96.8335 20.0138 95.4716 20.0138C93.7604 20.0138 92.0147 19.6122 90.7748 18.6867C89.5177 17.7268 88.5576 16.2773 88.5576 14.1125C88.5576 11.9822 89.4652 10.4809 90.6701 9.4857C91.9098 8.45551 93.6908 7.93176 95.5066 7.93176C97.2874 7.93176 98.5794 8.35063 99.1034 8.38566Z" fill="black"/>
<path d="M105.982 14.1997C105.266 14.1997 105.249 14.2172 105.249 14.7061V17.2206C105.249 18.8442 105.353 19.0016 106.139 19.1062L106.698 19.1761C106.837 19.281 106.837 19.6825 106.698 19.7872C105.703 19.7522 104.83 19.7349 104.044 19.7349C103.206 19.7349 102.333 19.7522 101.442 19.7872C101.303 19.6825 101.303 19.281 101.442 19.1761L101.861 19.1238C102.665 19.0189 102.752 18.8442 102.752 17.2206V10.7253C102.752 9.10148 102.664 8.92697 101.861 8.82209L101.442 8.76976C101.303 8.6651 101.303 8.26332 101.442 8.15845C102.298 8.19368 103.206 8.21099 104.044 8.21099C104.83 8.21099 105.703 8.19368 106.471 8.15845C106.61 8.26332 106.61 8.6651 106.471 8.76976L106.104 8.82209C105.353 8.92697 105.249 9.10148 105.249 10.7253V12.7508C105.249 13.257 105.266 13.2744 105.982 13.2744H109.614C110.347 13.2744 110.347 13.257 110.347 12.7508V10.7253C110.347 9.10148 110.26 8.96179 109.457 8.83961L108.985 8.76976C108.846 8.6651 108.846 8.26332 108.985 8.15845C109.946 8.19368 110.801 8.21099 111.639 8.21099C112.494 8.21099 113.298 8.19368 114.101 8.15845C114.241 8.26332 114.241 8.6651 114.101 8.76976L113.752 8.82209C112.949 8.94427 112.844 9.10148 112.844 10.7253V17.2204C112.844 18.8439 112.949 18.9663 113.752 19.106L114.171 19.1759C114.31 19.2808 114.31 19.6823 114.171 19.787C113.298 19.752 112.442 19.7347 111.639 19.7347C110.766 19.7347 109.911 19.752 109.072 19.787C108.933 19.6823 108.933 19.2808 109.072 19.1759L109.456 19.1235C110.26 19.0187 110.347 18.8439 110.347 17.2204V14.7059C110.347 14.217 110.347 14.1995 109.614 14.1995L105.982 14.1997Z" fill="black"/>
<path d="M120.194 17.1853C120.194 18.8264 120.299 18.9488 121.102 19.0885L121.591 19.1759C121.731 19.2807 121.713 19.6823 121.574 19.787C120.631 19.752 119.775 19.7346 118.955 19.7346C118.116 19.7346 117.244 19.752 116.301 19.787C116.161 19.6823 116.161 19.2807 116.301 19.1759L116.79 19.0885C117.593 18.9488 117.697 18.8264 117.697 17.1853V10.7601C117.697 9.119 117.593 8.99661 116.79 8.85712L116.301 8.76976C116.161 8.6651 116.161 8.26332 116.301 8.15845C117.244 8.19368 118.116 8.21099 118.955 8.21099C119.775 8.21099 120.648 8.19368 121.591 8.15845C121.731 8.26332 121.731 8.6651 121.591 8.76976L121.102 8.85712C120.299 8.99661 120.194 9.119 120.194 10.7601V17.1853Z" fill="black"/>
<path d="M127.545 16.8363C127.545 17.6572 127.615 18.2155 127.842 18.4949C128.069 18.7918 128.383 18.9317 129.658 18.9317C131.246 18.9317 131.735 18.8792 132.765 16.8538C132.905 16.6791 133.307 16.749 133.429 16.9585C133.342 17.8665 132.922 19.3158 132.678 19.787C131.753 19.752 130.076 19.7346 128.645 19.7346H126.305C125.502 19.7346 124.629 19.752 123.546 19.787C123.389 19.6823 123.354 19.2807 123.494 19.1759L124.158 19.0885C124.944 18.9838 125.048 18.8439 125.048 17.2204V10.7253C125.048 9.10148 124.944 8.94427 124.158 8.83961L123.651 8.76976C123.477 8.6651 123.477 8.26332 123.686 8.15845C124.594 8.19368 125.467 8.21099 126.305 8.21099C127.144 8.21099 128.017 8.19368 128.89 8.15845C129.029 8.26332 129.029 8.6651 128.89 8.76976L128.435 8.83961C127.65 8.96179 127.545 9.10148 127.545 10.7253L127.545 16.8363Z" fill="black"/>
<path d="M138.632 16.8363C138.632 17.6572 138.702 18.2155 138.928 18.4949C139.155 18.7918 139.47 18.9317 140.744 18.9317C142.333 18.9317 142.822 18.8792 143.852 16.8538C143.992 16.6791 144.393 16.749 144.516 16.9585C144.428 17.8665 144.01 19.3158 143.765 19.787C142.839 19.752 141.163 19.7346 139.732 19.7346H137.392C136.589 19.7346 135.716 19.752 134.633 19.787C134.476 19.6823 134.441 19.2807 134.581 19.1759L135.244 19.0885C136.03 18.9838 136.135 18.8439 136.135 17.2204V10.7253C136.135 9.10148 136.03 8.94427 135.244 8.83961L134.738 8.76976C134.564 8.6651 134.564 8.26332 134.773 8.15845C135.681 8.19368 136.554 8.21099 137.392 8.21099C138.23 8.21099 139.103 8.19368 139.977 8.15845C140.116 8.26332 140.116 8.6651 139.977 8.76976L139.522 8.83961C138.737 8.96179 138.632 9.10148 138.632 10.7253V16.8363Z" fill="black"/>
<path d="M57.8585 28.2764L58.6735 23.1956H59.6486L60.9132 26.235L62.1777 23.1956H63.1526L63.9676 28.2764H62.7946L62.391 25.2447L61.1185 28.2764H60.7074L59.4351 25.2447L59.0315 28.2764H57.8585Z" fill="black"/>
<path d="M69.3083 24.5974C69.0875 24.8105 68.859 25.1839 68.859 25.7475C68.859 26.2122 69.0114 26.5856 69.3237 26.8903C69.6513 27.2026 70.0168 27.3091 70.4129 27.3091C70.931 27.3091 71.2965 27.1188 71.5404 26.875C71.7383 26.6845 71.982 26.3265 71.982 25.74C71.982 25.2144 71.769 24.8259 71.5404 24.5976C71.2888 24.3539 70.8853 24.1635 70.4206 24.1635C69.9788 24.1633 69.5827 24.323 69.3083 24.5974ZM72.3934 23.8203C72.8736 24.2851 73.1859 24.9554 73.1859 25.74C73.1859 26.418 72.942 27.1111 72.3934 27.6444C71.9212 28.1014 71.2813 28.3908 70.4281 28.3908C69.4759 28.3908 68.8285 28.0101 68.4476 27.6444C67.9601 27.1876 67.6555 26.5018 67.6555 25.7552C67.6555 25.024 67.9829 24.2851 68.4401 23.8281C68.7829 23.4851 69.415 23.0814 70.4281 23.0814C71.2204 23.0814 71.883 23.3252 72.3934 23.8203Z" fill="black"/>
<path d="M78.2831 25.5036H78.5498C78.7631 25.5036 79.0525 25.4809 79.2506 25.2826C79.3342 25.199 79.4411 25.0389 79.4411 24.7876C79.4411 24.4978 79.3042 24.3458 79.2047 24.2695C79.0141 24.125 78.7095 24.1096 78.5575 24.1096H78.2831V25.5036ZM78.8924 23.1956C79.54 23.1956 79.9436 23.4089 80.1873 23.6376C80.4006 23.8432 80.6292 24.2086 80.6292 24.7724C80.6292 25.0923 80.5606 25.4884 80.2332 25.8082C80.0581 25.9759 79.8066 26.1283 79.5247 26.1969L81.0866 28.2764H79.6542L78.2831 26.2732V28.2764H77.1101V23.1956H78.8924Z" fill="black"/>
<path d="M86.5642 24.1859V28.2764H85.3912V24.1859H84.2868V23.1956H87.6691V24.1859H86.5642Z" fill="black"/>
<path d="M93.779 25.5035H96.3004V25.5569C96.3004 26.1741 96.0796 27.1108 95.516 27.6976C94.952 28.2841 94.3044 28.3906 93.7027 28.3906C93.0935 28.3906 92.4386 28.2916 91.8442 27.6823C91.5471 27.3777 91.0975 26.7608 91.0975 25.7475C91.0975 24.9175 91.4024 24.2546 91.8292 23.8203C92.4536 23.1732 93.2232 23.0814 93.8247 23.0814C94.2438 23.0814 94.7769 23.15 95.2492 23.4623C95.5923 23.6909 95.8892 24.0489 96.0719 24.3689L95.0129 24.9402C94.9141 24.7421 94.7615 24.5365 94.5636 24.3916C94.3351 24.2242 94.0761 24.1479 93.7867 24.1479C93.322 24.1479 92.9792 24.3003 92.7355 24.5593C92.4534 24.8566 92.3012 25.2907 92.3012 25.7629C92.3012 26.3417 92.5143 26.7147 92.728 26.9282C93.0249 27.2328 93.3677 27.3243 93.7561 27.3243C94.259 27.3243 94.5257 27.1492 94.6397 27.0502C94.6779 27.0197 94.9064 26.8217 95.0052 26.4482H93.779V25.5035Z" fill="black"/>
<path d="M102.891 26.4179L102.267 24.7115L101.634 26.4179H102.891ZM103.211 27.3167H101.292L100.903 28.2764H99.6841L101.733 23.1956H102.807L104.81 28.2764H103.592L103.211 27.3167Z" fill="black"/>
<path d="M110.875 25.5035H113.396V25.5569C113.396 26.1741 113.175 27.1108 112.612 27.6976C112.048 28.2841 111.4 28.3906 110.799 28.3906C110.19 28.3906 109.534 28.2916 108.94 27.6823C108.643 27.3777 108.193 26.7608 108.193 25.7475C108.193 24.9175 108.498 24.2546 108.925 23.8203C109.549 23.1732 110.319 23.0814 110.92 23.0814C111.34 23.0814 111.873 23.15 112.345 23.4623C112.688 23.6909 112.985 24.0489 113.168 24.3689L112.109 24.9402C112.01 24.7421 111.858 24.5365 111.659 24.3916C111.431 24.2242 111.172 24.1479 110.882 24.1479C110.418 24.1479 110.075 24.3003 109.831 24.5593C109.549 24.8566 109.397 25.2907 109.397 25.7629C109.397 26.3417 109.61 26.7147 109.824 26.9282C110.121 27.2328 110.464 27.3243 110.852 27.3243C111.355 27.3243 111.622 27.1492 111.736 27.0502C111.774 27.0197 112.002 26.8217 112.101 26.4482H110.875V25.5035Z" fill="black"/>
<path d="M120.193 24.1859H118.494V25.1682H120.109V26.1585H118.494V27.2861H120.193V28.2764H117.321V23.1956H120.193V24.1859Z" fill="black"/>
<path d="M125.841 24.4696H125.87C126.015 24.4696 126.096 24.4141 126.096 24.3034C126.096 24.2013 126.015 24.1416 125.87 24.1416H125.841V24.4696ZM126.279 24.7336L126.786 25.3809H126.152L125.841 24.9039V25.3809H125.342V23.7665H126.015C126.36 23.7665 126.586 23.9709 126.586 24.2861C126.586 24.4907 126.471 24.6695 126.296 24.725L126.279 24.7336ZM126.015 23.3833C125.347 23.3833 124.81 23.92 124.81 24.5974C124.81 25.2746 125.347 25.8198 126.015 25.8198C126.68 25.8198 127.217 25.2746 127.217 24.5974C127.217 23.92 126.693 23.3833 126.015 23.3833ZM126.015 23.115C126.846 23.115 127.515 23.7751 127.515 24.5974C127.506 25.4153 126.837 26.0842 126.015 26.0842C125.189 26.0842 124.512 25.411 124.512 24.5974C124.512 23.7751 125.189 23.115 126.015 23.115Z" fill="black"/>
</svg>
