<svg width="141" height="32" viewBox="0 0 141 32" fill="none" xmlns="http://www.w3.org/2000/svg">
<path d="M130.451 9.52718V9.2766H126.617V9.52718C127.165 9.83452 127.408 10.1997 127.408 11.6612V20.3565C127.408 21.8189 127.165 22.1845 126.617 22.4928V22.7425H130.451V22.4928C129.903 22.1841 129.661 21.8189 129.661 20.3565V16.6055H137.794V20.3565C137.794 21.8189 137.551 22.1845 137.004 22.4928V22.7425H140.837V22.4928C140.29 22.1841 140.046 21.8189 140.046 20.3565V11.6612C140.046 10.1992 140.29 9.8341 140.837 9.52718V9.2766H137.004V9.52718C137.551 9.83452 137.794 10.1997 137.794 11.6612V15.1244H129.661V11.6612C129.661 10.1992 129.903 9.83457 130.451 9.52718ZM119.904 22.4934C119.295 22.1659 119.011 21.7808 119.011 20.2611V10.739H120.736C122.946 10.739 123.372 11.0464 123.961 11.7385L124.224 11.6612L123.798 9.10338C122.967 9.19885 121.871 9.2766 120.492 9.2766H115.279C113.899 9.2766 112.804 9.19885 111.972 9.10338L111.547 11.6612L111.81 11.7385C112.399 11.0464 112.825 10.739 115.035 10.739H116.761V20.2606C116.761 21.7803 116.477 22.1655 115.868 22.4928V22.7425H119.905V22.4933H119.904V22.4934ZM105.827 9.52718C106.416 9.85412 106.718 10.2379 106.718 11.7586V17.5099C106.718 19.9723 105.32 21.3383 102.865 21.3383C100.309 21.3383 98.9309 20.011 98.9309 17.6446V11.6612C98.9309 10.1993 99.1735 9.83415 99.7216 9.52722V9.27664H95.8873V9.52722C96.4358 9.83457 96.6793 10.1998 96.6793 11.6612V17.7797C96.6793 21.0878 98.8489 23.0314 102.561 23.0314C106.253 23.0314 108.444 21.0696 108.444 17.51V11.7586C108.444 10.238 108.748 9.85421 109.336 9.52722V9.27664H105.827V9.52718ZM86.0902 8.96875C81.5467 8.96875 78.5851 12.2964 78.5851 16.1053C78.5851 19.7218 81.3032 23.0308 86.1104 23.0308C90.6548 23.0308 93.6155 19.7036 93.6155 15.8939C93.616 12.2778 90.8974 8.96875 86.0902 8.96875ZM86.293 21.5498C83.2916 21.5498 80.979 19.0683 80.979 15.6824C80.979 12.451 82.9468 10.4489 85.908 10.4489C88.9099 10.4489 91.2219 12.9313 91.2219 16.3168C91.2225 19.5499 89.2557 21.5498 86.293 21.5498ZM62.3377 22.4934C61.7087 22.2428 61.445 21.7808 61.6482 20.3002L62.5808 13.6052L67.2058 22.5693H68.0583L72.7432 13.5857L73.6154 20.3766C73.7985 21.8195 73.5961 22.2428 73.0069 22.4934V22.743H76.8614V22.4934C76.3335 22.2237 76.1106 21.8194 75.9072 20.4539L74.2852 9.12293H73.251L67.9567 19.4926L62.6624 9.12293H61.6287L59.9448 20.3766C59.742 21.7808 59.437 22.2046 58.8492 22.4934V22.743H62.3378V22.4934H62.3377ZM53.5956 22.4934C52.9872 22.1659 52.7033 21.7808 52.7033 20.2611V10.739H54.4274C56.6378 10.739 57.0645 11.0464 57.6528 11.7385L57.9165 11.6612L57.4903 9.10338C56.6594 9.19885 55.5633 9.2766 54.1844 9.2766H48.9716C47.5917 9.2766 46.497 9.19885 45.6652 9.10338L45.2394 11.6612L45.5031 11.7385C46.0914 11.0464 46.5167 10.739 48.7275 10.739H50.4531V20.2606C50.4531 21.7803 50.1683 22.1655 49.5599 22.4928V22.7425H53.5965V22.4933H53.5956V22.4934ZM35.8465 22.4934C35.3997 22.2814 35.0554 21.8194 35.0554 20.357V10.6817H36.9024C39.153 10.6817 40.2888 11.5084 40.2888 13.2983C40.2888 14.9335 39.2139 15.9525 37.1651 15.9525H35.8264V16.1454L36.455 17.3577H37.0639C37.7332 17.3577 37.9361 17.5687 38.93 18.8378L41.4654 22.0696C41.8715 22.5898 42.1549 22.743 42.6828 22.743H45.178V22.4934C44.6501 22.3006 44.245 22.0114 43.2707 20.8191L41.5259 18.7028C40.5928 17.5873 40.0861 17.0298 39.4776 16.7984C41.5666 16.2782 42.6426 14.8753 42.6426 13.1819C42.6426 10.7004 40.8978 9.27664 37.1248 9.27664H32.0136V9.52722C32.4595 9.73864 32.8043 10.1998 32.8043 11.6612V20.3566C32.8043 21.819 32.459 22.281 32.0136 22.4929V22.7425H35.847V22.4934H35.8465ZM28.3625 20.6648L22.8653 9.12247H22.0344L16.5368 20.6648C15.9893 21.8004 15.7054 22.2237 15.0964 22.4933V22.743H18.7481V22.4933C18.0179 22.2237 17.7738 21.8008 18.4225 20.3966L19.1729 18.7604H25.0153L25.7657 20.3966C26.4149 21.8008 26.1915 22.2241 25.5423 22.4933V22.743H29.7007V22.4933C29.1738 22.2237 28.9105 21.8004 28.3625 20.6648ZM19.8231 17.3754L22.0948 12.4511L24.3661 17.3754H19.8231ZM6.98387 9.2766H0.837036V9.52718C1.3846 9.83452 1.62814 10.1997 1.62814 11.6612V20.3565C1.62814 21.8189 1.38411 22.1845 0.837036 22.4928V22.7425H6.5979C11.9526 22.7425 14.7115 19.7413 14.7115 15.6432C14.711 11.9504 12.0336 9.2766 6.98387 9.2766ZM6.43582 21.281H3.85915V10.739H6.61804C10.31 10.739 12.3382 12.5084 12.3382 16.163C12.3376 19.337 10.4922 21.281 6.43582 21.281Z" fill="#00693E"/>
</svg>
