<svg width="37" height="32" viewBox="0 0 37 32" fill="none" xmlns="http://www.w3.org/2000/svg">
<path d="M10.2052 15.712V5.77039C10.2052 5.76738 10.204 5.76449 10.2018 5.76236C10.1997 5.76023 10.1968 5.75903 10.1937 5.75903L8.54927 5.75939C8.54624 5.75939 8.54333 5.75819 8.54119 5.75606C8.53905 5.75393 8.53784 5.75104 8.53784 5.74803V0.444948C8.53784 0.441937 8.53905 0.439049 8.54119 0.436919C8.54333 0.43479 8.54624 0.433594 8.54927 0.433594H24.3683C24.3712 0.433616 24.374 0.43476 24.3761 0.436787L27.8608 3.86502C27.8629 3.86712 27.864 3.86991 27.8641 3.87283V17.6376C27.864 17.6405 27.8629 17.6433 27.8608 17.6454L24.3697 21.0797C24.3676 21.0817 24.3648 21.0828 24.3619 21.0828H8.54927C8.54777 21.0828 8.54629 21.0826 8.5449 21.082C8.54351 21.0814 8.54225 21.0806 8.54119 21.0795C8.54013 21.0785 8.53929 21.0772 8.53871 21.0758C8.53814 21.0745 8.53784 21.073 8.53784 21.0715V15.7347C8.53784 15.7317 8.53905 15.7288 8.54119 15.7267C8.54333 15.7245 8.54624 15.7233 8.54927 15.7233H10.1937C10.1968 15.7233 10.1997 15.7221 10.2018 15.72C10.204 15.7179 10.2052 15.715 10.2052 15.712ZM12.1408 3.81996C12.1453 3.81996 12.1497 3.82176 12.1529 3.82495C12.1561 3.82814 12.1579 3.83248 12.1579 3.83699V17.6496C12.1579 17.6542 12.1561 17.6585 12.1529 17.6617C12.1497 17.6649 12.1453 17.6667 12.1408 17.6667H10.5095C10.5073 17.6667 10.5051 17.6671 10.503 17.668C10.5009 17.6688 10.499 17.6701 10.4974 17.6717C10.4958 17.6732 10.4946 17.6751 10.4937 17.6772C10.4928 17.6793 10.4924 17.6815 10.4924 17.6837L10.492 19.1246C10.492 19.1291 10.4938 19.1335 10.4971 19.1367C10.5003 19.1398 10.5046 19.1416 10.5092 19.1416H23.5534C23.5556 19.1416 23.5579 19.1412 23.56 19.1404C23.562 19.1395 23.5639 19.1383 23.5655 19.1367L25.9041 16.8375C25.9057 16.8359 25.907 16.834 25.9078 16.8319C25.9087 16.8299 25.9091 16.8276 25.9091 16.8254V4.68607C25.9091 4.68383 25.9087 4.68161 25.9078 4.67954C25.907 4.67747 25.9057 4.67559 25.9041 4.674L23.5652 2.37302C23.5636 2.37144 23.5617 2.37019 23.5596 2.36934C23.5575 2.36848 23.5553 2.36805 23.553 2.36805H10.5099C10.5054 2.36805 10.501 2.36985 10.4978 2.37304C10.4946 2.37624 10.4928 2.38057 10.4928 2.38508L10.492 3.80222C10.492 3.80674 10.4938 3.81107 10.4971 3.81426C10.5003 3.81746 10.5046 3.81925 10.5092 3.81925L12.1408 3.81996Z" fill="#003CA6"/>
<path d="M22.6685 5.57149C22.6727 5.58157 22.6749 5.59242 22.6749 5.60342V15.8715C22.6749 15.893 22.6673 15.9113 22.652 15.9265L21.1884 17.3801C21.1793 17.3891 21.1686 17.3936 21.1562 17.3936H15.3779C15.371 17.3936 15.3676 17.3902 15.3676 17.3833V4.13235C15.3676 4.12029 15.3735 4.11426 15.3854 4.11426H21.1115C21.1466 4.11424 21.1803 4.12786 21.2055 4.15222C21.6809 4.61254 22.1621 5.07664 22.6492 5.54452C22.6575 5.55257 22.6639 5.56155 22.6685 5.57149ZM17.9416 15.4485L18.7394 15.4482C19.2326 15.4522 19.7355 15.4527 20.2481 15.4496C20.3045 15.4492 20.3534 15.4588 20.3974 15.4166C20.4898 15.3276 20.5861 15.2324 20.6864 15.131C20.7072 15.1098 20.7189 15.0813 20.7189 15.0515V6.41276C20.7189 6.39857 20.7138 6.3865 20.7036 6.37657L20.3902 6.07391C20.3776 6.06184 20.3626 6.05581 20.3452 6.05581H17.3425C17.3301 6.05581 17.3239 6.06184 17.3239 6.07391V15.4304C17.3239 15.4418 17.3296 15.4474 17.341 15.4474L17.9416 15.4485Z" fill="#003CA6"/>
<path d="M24.9231 21.742L28.5968 18.0061C28.6057 17.9973 28.6107 17.9851 28.6107 17.9724L28.6011 5.16249C28.6011 5.127 28.608 5.12558 28.6218 5.15823C28.8464 5.6888 29.0752 6.22788 29.3081 6.77548C29.3556 6.88689 29.3506 6.99192 29.3506 7.10936C29.3492 10.5683 29.3491 14.0088 29.3502 17.4306C29.3506 17.7308 29.3613 18.037 29.3485 18.3389C29.3478 18.3568 29.3404 18.3737 29.3277 18.3865L25.2507 22.5151C25.243 22.5229 25.2339 22.529 25.2237 22.5332C25.2136 22.5374 25.2028 22.5396 25.1918 22.5396C20.2823 22.5394 15.3592 22.5395 10.4224 22.54C10.3914 22.54 10.3626 22.5318 10.3359 22.5155C9.95127 22.2801 9.56722 22.0467 9.18377 21.8151C9.16019 21.8009 9.16221 21.7937 9.18984 21.7934L24.8838 21.7583C24.8993 21.7583 24.9124 21.7529 24.9231 21.742Z" fill="#42C7E6"/>
<path d="M8.61395 6.35822L9.77611 6.35645C9.77904 6.35645 9.78186 6.3576 9.78394 6.35967C9.78601 6.36173 9.78718 6.36453 9.78718 6.36744L9.78682 7.41025C9.78684 7.41239 9.78622 7.41449 9.78505 7.41629C9.78388 7.41809 9.7822 7.41951 9.78023 7.42038C9.77826 7.42125 9.77607 7.42152 9.77394 7.42117C9.77181 7.42082 9.76983 7.41986 9.76825 7.41841L8.6068 6.37738C8.60516 6.37591 8.604 6.37397 8.60347 6.37184C8.60294 6.3697 8.60307 6.36746 8.60384 6.36539C8.60461 6.36333 8.60598 6.36155 8.60778 6.36027C8.60959 6.35899 8.61173 6.35827 8.61395 6.35822Z" fill="#42C7E6"/>
<path d="M18.7393 15.4478L17.9416 15.4481L17.9412 6.64193C17.9412 6.63459 17.9442 6.62755 17.9494 6.62236C17.9546 6.61717 17.9617 6.61426 17.9691 6.61426H19.9322C19.9486 6.61426 19.9642 6.6202 19.9762 6.63093L20.3338 6.95027C20.3386 6.95461 20.3424 6.95993 20.345 6.96587C20.3476 6.9718 20.3489 6.97822 20.3488 6.98469L20.3427 7.30473C20.3426 7.30862 20.341 7.31232 20.3381 7.31504C20.3352 7.31776 20.3314 7.31928 20.3273 7.31928L18.7561 7.31502C18.7454 7.31502 18.7401 7.32046 18.7401 7.33134L18.7393 15.4478Z" fill="#42C7E6"/>
<path d="M28.2595 25.9661C27.8047 25.6925 27.2406 25.6148 26.704 25.6961C25.1882 25.9264 24.9185 27.6522 25.0328 28.8973C25.1221 29.868 25.5579 30.9002 26.6494 31.0893C27.1786 31.1808 27.6909 31.106 28.1863 30.8647C28.2663 30.8257 28.3467 30.7803 28.3942 30.7015C28.59 30.3755 28.7861 30.0517 28.9826 29.73C28.99 29.7179 29.0008 29.7119 29.0151 29.7119H29.3763C29.3913 29.7119 29.3989 29.7194 29.3992 29.7343L29.4263 31.5406C29.4266 31.5532 29.421 31.562 29.4095 31.5672C29.3788 31.5807 29.348 31.5922 29.317 31.6017C28.5357 31.8397 27.7329 31.8958 26.9216 31.8745C26.2785 31.8577 25.6733 31.6604 25.106 31.2827C24.4761 30.8631 24.0389 30.2982 23.7945 29.5881C23.3037 28.1617 23.7066 26.5792 24.9224 25.6415C25.5755 25.1376 26.3954 24.8953 27.2367 24.9066C27.9538 24.9163 28.6618 25.026 29.3606 25.2355C29.3623 25.2361 29.3637 25.2371 29.3647 25.2385C29.3658 25.2399 29.3663 25.2416 29.3663 25.2434L29.3381 27.071C29.338 27.0744 29.3366 27.0777 29.3341 27.0801C29.3316 27.0825 29.3283 27.0838 29.3249 27.0838L28.954 27.0831C28.9405 27.0831 28.9302 27.0773 28.9233 27.0657L28.312 26.019C28.2994 25.9973 28.2813 25.9791 28.2595 25.9661Z" fill="#003CA6"/>
<path d="M32.6066 31.8523C31.9414 31.7863 31.2451 31.4471 30.7364 31.0033C29.6296 30.0382 29.3217 28.4248 29.8232 27.1006C30.3295 25.7655 31.632 24.943 33.0454 24.91C33.7846 24.8927 34.5502 24.9994 35.3422 25.2301C35.3565 25.2341 35.3635 25.2435 35.3632 25.2584L35.3357 27.0641C35.3357 27.0773 35.3289 27.084 35.3154 27.084L34.9488 27.0833C34.9369 27.083 34.928 27.0778 34.922 27.0676C34.7222 26.7268 34.5224 26.3842 34.3226 26.0397C34.3014 26.0031 34.2727 25.9746 34.2365 25.9542C33.8102 25.7137 33.3458 25.637 32.8639 25.6753C31.1648 25.8109 30.8839 27.7131 31.0451 29.0394C31.1137 29.6053 31.3119 30.1996 31.7235 30.6155C32.3641 31.263 33.5094 31.2648 34.2804 30.8106C34.3261 30.7836 34.3621 30.7486 34.3883 30.7056C34.5962 30.3616 34.7939 30.0359 34.9813 29.7284C34.988 29.7178 34.9977 29.7124 35.0103 29.7124L35.3868 29.7121C35.3902 29.7121 35.3934 29.7134 35.3958 29.7157C35.3982 29.718 35.3996 29.7212 35.3997 29.7245L35.4158 31.5458C35.4158 31.5526 35.4137 31.5594 35.4097 31.5649C35.4056 31.5705 35.3998 31.5746 35.3933 31.5767C34.8921 31.738 34.3707 31.8321 33.8288 31.8591C33.3151 31.8846 32.9077 31.8824 32.6066 31.8523Z" fill="#003CA6"/>
<path d="M10.3495 26.6632V30.8908C10.3495 30.9014 10.3546 30.9083 10.3649 30.9114L11.119 31.1473C11.1235 31.1488 11.1274 31.1516 11.1302 31.1554C11.1329 31.1593 11.1344 31.1639 11.1344 31.1686L11.134 31.7009C11.134 31.7117 11.1284 31.7172 11.1173 31.7172H8.55429C8.53738 31.7172 8.52892 31.7087 8.52892 31.6916L8.52856 31.1686C8.52856 31.1577 8.53392 31.1509 8.54464 31.148L9.41063 30.9121C9.42421 30.9083 9.431 30.8994 9.431 30.8855V25.8819C9.431 25.8794 9.4302 25.8771 9.42871 25.8752C9.42723 25.8732 9.42514 25.8718 9.42278 25.8712L8.54786 25.6335C8.53547 25.6302 8.52928 25.622 8.52928 25.609L8.52856 25.0828C8.52856 25.0712 8.53428 25.0654 8.54571 25.0654H10.9033C10.9166 25.0654 10.9255 25.0716 10.9301 25.0839L12.7342 30.0502C12.743 30.0748 12.7521 30.075 12.7614 30.0506L14.6566 25.0761C14.6578 25.073 14.6599 25.0703 14.6626 25.0684C14.6654 25.0665 14.6686 25.0654 14.672 25.0654H16.9598C16.9722 25.0654 16.9784 25.0717 16.9784 25.0842V25.6076C16.9784 25.6215 16.9715 25.6304 16.9577 25.6342L16.0989 25.868C16.0838 25.872 16.0763 25.8819 16.0763 25.8975V30.8869C16.0763 30.8997 16.0825 30.9077 16.0949 30.911L16.9656 31.148C16.9746 31.1504 16.9791 31.1562 16.9791 31.1654L16.9784 31.6945C16.9784 31.7096 16.9709 31.7172 16.9559 31.7172H13.9667C13.9553 31.7172 13.9496 31.7115 13.9496 31.7001L13.9499 31.1754C13.9499 31.1686 13.9521 31.1619 13.9562 31.1564C13.9602 31.151 13.9659 31.1469 13.9725 31.1449L14.712 30.9139C14.7272 30.9091 14.7348 30.8988 14.7348 30.883V26.7575C14.7348 26.7136 14.727 26.7121 14.7113 26.7533L12.8224 31.7158C12.8213 31.7188 12.8192 31.7214 12.8164 31.7232C12.8137 31.7251 12.8104 31.7261 12.8071 31.726H12.2162C12.2129 31.726 12.2097 31.7251 12.2071 31.7232C12.2044 31.7214 12.2023 31.7188 12.2012 31.7158L10.3627 26.661C10.3622 26.6595 10.3612 26.6582 10.3598 26.6574C10.3584 26.6566 10.3568 26.6563 10.3552 26.6565C10.3536 26.6568 10.3522 26.6576 10.3511 26.6588C10.3501 26.66 10.3495 26.6616 10.3495 26.6632Z" fill="#003CA6"/>
<path d="M19.9029 31.1629L19.9004 31.703C19.9004 31.7067 19.8989 31.7104 19.8963 31.713C19.8936 31.7157 19.8899 31.7172 19.8862 31.7172H17.2767C17.273 31.7172 17.2693 31.7157 17.2666 31.713C17.264 31.7104 17.2625 31.7067 17.2625 31.703V31.1622C17.2624 31.1593 17.2634 31.1564 17.2651 31.154C17.2668 31.1515 17.2693 31.1497 17.2721 31.1488L17.9988 30.9085C18.0007 30.9079 18.0025 30.9068 18.0039 30.9054C18.0054 30.904 18.0066 30.9023 18.0073 30.9004L20.0709 25.9848C20.0716 25.9829 20.0719 25.981 20.0719 25.979C20.0718 25.9771 20.0713 25.9752 20.0705 25.9734L19.6886 25.0853C19.6876 25.0831 19.6872 25.0808 19.6874 25.0784C19.6877 25.076 19.6884 25.0738 19.6898 25.0718C19.6911 25.0698 19.6929 25.0682 19.695 25.0671C19.6971 25.066 19.6994 25.0654 19.7018 25.0654H21.0612C21.0639 25.0655 21.0666 25.0663 21.0689 25.0678C21.0711 25.0693 21.0729 25.0715 21.074 25.0739L23.6031 30.9004C23.6038 30.9023 23.605 30.904 23.6065 30.9054C23.6079 30.9068 23.6097 30.9079 23.6116 30.9085L24.3758 31.1491C24.3787 31.15 24.3812 31.1518 24.383 31.1542C24.3848 31.1567 24.3858 31.1596 24.3858 31.1626L24.3847 31.703C24.3847 31.7067 24.3832 31.7104 24.3806 31.713C24.3779 31.7157 24.3742 31.7172 24.3704 31.7172H21.3763C21.3725 31.7172 21.3688 31.7157 21.3662 31.713C21.3635 31.7104 21.362 31.7067 21.362 31.703V31.1626C21.362 31.1595 21.363 31.1566 21.3649 31.1541C21.3668 31.1517 21.3694 31.15 21.3723 31.1491L22.1905 30.9114C22.1925 30.9108 22.1943 30.9099 22.1959 30.9086C22.1975 30.9073 22.1988 30.9056 22.1996 30.9038C22.2005 30.9019 22.201 30.8999 22.201 30.8978C22.201 30.8958 22.2006 30.8937 22.1998 30.8919L21.7478 29.864C21.7467 29.8615 21.7449 29.8593 21.7427 29.8578C21.7404 29.8563 21.7377 29.8555 21.735 29.8555H19.3195C19.3167 29.8555 19.3139 29.8564 19.3115 29.858C19.3091 29.8597 19.3073 29.862 19.3063 29.8647L18.9058 30.8919C18.9051 30.8938 18.9048 30.8958 18.9049 30.8978C18.9051 30.8998 18.9056 30.9017 18.9066 30.9035C18.9075 30.9053 18.9088 30.9068 18.9104 30.9081C18.912 30.9093 18.9139 30.9102 18.9158 30.9107L19.8919 31.1491C19.895 31.1498 19.8978 31.1516 19.8998 31.1541C19.9018 31.1566 19.9029 31.1597 19.9029 31.1629ZM19.5936 29.1217C19.5929 29.1235 19.5926 29.1255 19.5929 29.1274C19.5931 29.1294 19.5938 29.1312 19.595 29.1328C19.5961 29.1344 19.5976 29.1358 19.5993 29.1367C19.6011 29.1376 19.603 29.138 19.605 29.138H21.4209C21.423 29.138 21.425 29.1375 21.4267 29.1365C21.4285 29.1356 21.43 29.1342 21.4311 29.1325C21.4322 29.1308 21.4329 29.1289 21.433 29.1268C21.4332 29.1248 21.4328 29.1228 21.432 29.121L20.4785 26.9417C20.4775 26.9395 20.476 26.9376 20.4739 26.9363C20.4719 26.935 20.4695 26.9343 20.4671 26.9344C20.4647 26.9344 20.4623 26.9351 20.4604 26.9365C20.4584 26.9379 20.4569 26.9398 20.456 26.9421L19.5936 29.1217Z" fill="#003CA6"/>
<path d="M2.61096 25.8773L1.77534 25.6459C1.76343 25.6426 1.75748 25.6348 1.75748 25.6225V25.0939C1.75748 25.0806 1.76415 25.074 1.77748 25.074C2.76351 25.0763 3.76395 25.0761 4.7788 25.0733C5.05604 25.0726 5.30254 25.0839 5.51833 25.1073C6.10852 25.1719 6.70049 25.3681 7.20423 25.6871C7.94304 26.1555 8.44284 26.9272 8.60503 27.7702C8.65267 28.0172 8.67041 28.2813 8.65826 28.5625C8.61075 29.6699 8.08808 30.6084 7.13456 31.1758C6.47221 31.57 5.70196 31.7158 4.9385 31.7169C3.83457 31.7183 2.78221 31.7185 1.78141 31.7176C1.77617 31.7176 1.77113 31.7155 1.76739 31.7118C1.76365 31.708 1.7615 31.703 1.76141 31.6977L1.75605 31.1793C1.75594 31.1738 1.75767 31.1685 1.76097 31.1641C1.76427 31.1598 1.76895 31.1566 1.77427 31.1552L2.61311 30.9221C2.61877 30.9204 2.62375 30.917 2.62729 30.9124C2.63084 30.9077 2.63275 30.902 2.63276 30.8962V25.9057C2.63276 25.8908 2.62549 25.8813 2.61096 25.8773ZM5.84879 25.9167C5.5768 25.8121 5.2998 25.7568 5.01781 25.7506C4.68294 25.7435 4.33747 25.7423 3.98141 25.7471C3.97866 25.7471 3.97602 25.7482 3.97408 25.7502C3.97214 25.7522 3.97104 25.7549 3.97104 25.7577V31.0377C3.97104 31.0531 3.97879 31.0609 3.99427 31.0612C4.49419 31.0659 4.82989 31.0654 5.00138 31.0597C5.96883 31.0267 6.76873 30.4356 7.09776 29.5319C7.27068 29.0579 7.29783 28.5583 7.25389 28.058C7.1735 27.1422 6.75623 26.2662 5.84879 25.9167Z" fill="#003CA6"/>
</svg>
